# AST/ASF file generated using VICON BodyLanguage
# -----------------------------------------------
:version 1.10
:name VICON
:units
  mass 1.0
  length 0.45
  angle deg
:documentation
   .ast/.asf automatically generated from VICON data using
   VICON BodyBuilder and BodyLanguage model FoxedUp or BRILLIANT.MOD
:root
   order TX TY TZ RX RY RZ
   axis XYZ
   position 0 0 0  
   orientation 0 0 0 
:bonedata
  begin
     id 1 
     name lhipjoint
     direction 0.535335 -0.74333 0.401095 
     length 2.04549 
     axis 0 0 0  XYZ
  end
  begin
     id 2 
     name lfemur
     direction 0.34202 -0.939693 0  
     length 6.95643  
     axis 0 0 20  XYZ
    dof rx ry rz
    limits (-160.0 20.0)
           (-70.0 70.0)
           (-60.0 70.0)
  end
  begin
     id 3 
     name ltibia
     direction 0.34192 -0.939729 0   
     length 5.55969   
     axis 0 0 20   XYZ
    dof rx
    limits (-10.0 170.0)
  end
  begin
     id 4 
     name lfoot
     direction 0.216943 -0.596046 0.773088   
     length 2.27918   
     axis -90 7.62852e-016 20   XYZ
    dof rx rz
    limits (-45.0 90.0)
           (-70.0 20.0)
  end
  begin
     id 5 
     name ltoes
     direction 1.53519e-011 -4.21748e-011 1   
     length 1.05562   
     axis -90 7.62852e-016 20   XYZ
    dof rx
    limits (-90.0 20.0)
  end
  begin
     id 6 
     name rhipjoint
     direction -0.576368 -0.719173 0.38806   
     length 2.1142  
     axis 0 0 0  XYZ 
  end
  begin
     id 7 
     name rfemur
     direction -0.34202 -0.939693 0   
     length 7.07928   
     axis 0 0 -20   XYZ
    dof rx ry rz
    limits (-160.0 20.0)
           (-70.0 70.0)
           (-70.0 60.0)
  end
  begin
     id 8 
     name rtibia
     direction -0.34202 -0.939693 0   
     length 5.79974   
     axis 0 0 -20   XYZ
    dof rx
    limits (-10.0 170.0)
 end
 begin
     id 9 
     name rfoot
     direction -0.189288 -0.520065 0.832888   
     length 2.42173  
     axis -90 -7.62852e-016 -20   XYZ
    dof rx rz
    limits (-45.0 90.0)
           (-20.0 70.0)
  end
  begin
     id 10 
     name rtoes
     direction -1.53574e-011 -4.21658e-011 1   
     length 1.14469   
     axis -90 -7.62852e-016 -20   XYZ
    dof rx
    limits (-90.0 20.0)
  end
  begin
     id 11 
     name lowerback
     direction -0.00135702 0.993803 0.111144   
     length 1.91308   
     axis 0 0 0   XYZ
    dof rx ry rz
    limits (-20.0 45.0)
           (-30.0 30.0)
           (-30.0 30.0)
  end
  begin
     id 12 
     name upperback
     direction -0.0056745 0.999813 0.0184631   
     length 1.9212   
     axis 0 0 0   XYZ
    dof rx ry rz
    limits (-20.0 45.0)
           (-30.0 30.0)
           (-30.0 30.0)
  end
  begin
     id 13 
     name thorax
     direction -0.00733434 0.999426 -0.0330788   
     length 1.94196   
     axis 0 0 0   XYZ
    dof rx ry rz
    limits (-20.0 45.0)
           (-30.0 30.0)
           (-30.0 30.0)
  end
  begin
     id 14 
     name lowerneck
     direction 0.0563074 0.996944 -0.0541571   
     length 2.34257   
     axis 0 0 0   XYZ
    dof rx ry rz
    limits (-20.0 45.0)
           (-30.0 30.0)
           (-30.0 30.0)
  end
  begin
     id 15 
     name upperneck
     direction -0.0544519 0.976166 -0.210085   
     length 2.32506   
     axis 0 0 0   XYZ
    dof rx ry rz
    limits (-20.0 45.0)
           (-30.0 30.0)
           (-30.0 30.0)
  end
  begin
     id 16
     name head
     direction -0.0226035 0.997615 -0.0652205  
     length 2.3648  
     axis 0 0 0   XYZ
    dof rx ry rz
    limits (-20.0 45.0)
           (-30.0 30.0)
           (-30.0 30.0)
  end
  begin
     id 17 
     name lclavicle
     direction 0.92109 0.381297 -0.0787716  
     length 4.0487  
     axis 0 0 0   XYZ
    dof ry rz
    limits (-20.0 10.0)
           (0.0 20.0)
  end
  begin
     id 18 
     name lhumerus
     direction 1 -4.48986e-011 3.56724e-027   
     length 4.94991   
     axis 180 -30 -90   XYZ
    dof rx ry rz
    limits (-60.0 90.0)
           (-90.0 90.0)
           (-90.0 90.0)
  end
  begin
     id 19
     name lradius
     direction 1 -4.48981e-011 8.62147e-027   
     length 2.7606   
     axis 180 -30 -90   XYZ
    dof rx
    limits (-10.0 170.0)
  end
  begin
     id 20
     name lwrist
     direction 1 -4.48989e-011 1.59799e-026   
     length 1.3803   
     axis -1.17785e-014 90 90   XYZ
    dof ry
    limits (-180.0 0.0)
 end
  begin
     id 21 
     name lhand
     direction 1 -4.48896e-011 3.19599e-026   
     length 0.843936   
     axis -2.03931e-014 90 90   XYZ
    dof rx rz
    limits (-90.0 90.0)
           (-45.0 45.0)
  end
  begin
     id 22 
     name lfingers
     direction 1 -4.48887e-011 6.39197e-026   
     length 0.680403   
     axis -4.07862e-014 90 90   XYZ
    dof rx
    limits (0.0 90.0)
  end
  begin
     id 23
     name lthumb
     direction 0.707107 -6.348e-011 0.707107   
     length 0.976926   
     axis -90 45 2.85299e-015   XYZ
    dof rx rz
    limits (-45.0 45.0)
           (-45.0 45.0)
  end
  begin
     id 24 
     name rclavicle
     direction -0.951104 0.307692 -0.026953   
     length 4.21801  
     axis 0 0 0   XYZ 
    dof ry rz
    limits (-10.0 20.0)
           (-20.0 0.0)
  end
  begin
     id 25 
     name rhumerus
     direction -1 -4.4896e-011 -1.8171e-018  
     length 4.32982   
     axis 180 30 90   XYZ
    dof rx ry rz
    limits (-90.0 60.0)
           (-90.0 90.0)
           (-90.0 90.0)
  end
  begin
     id 26 
     name rradius
     direction -1 -4.48959e-011 8.25165e-027   
     length 3.20057   
     axis 180 30 90   XYZ
    dof rx
    limits (-10.0 170.0)
  end
  begin
     id 27 
     name rwrist
     direction -1 -4.48997e-011 1.59799e-026   
     length 1.60029   
     axis -1.17785e-014 -90 -90   XYZ
    dof ry
    limits (-180.0 0.0)
  end
  begin
     id 28
     name rhand
     direction -1 -4.49023e-011 3.19599e-026   
     length 0.960433   
     axis -2.03931e-014 -90 -90   XYZ
    dof rx rz
    limits (-90.0 90.0)
           (-45.0 45.0)
  end
  begin
     id 29
     name rfingers
     direction -1 -4.48802e-011 6.39197e-026   
     length 0.774326   
     axis -4.07862e-014 -90 -90   XYZ
    dof rx
    limits (0.0 90.0)
  end
  begin
     id 30
     name rthumb
     direction -0.707107 -6.34876e-011 0.707107   
     length 1.11178   
     axis -90 -45 -2.85299e-015   XYZ
    dof rx rz
    limits (-45.0 45.0)
           (-45.0 45.0)
  end
:hierarchy
  begin
    root lhipjoint rhipjoint lowerback
    lhipjoint lfemur
    lfemur ltibia
    ltibia lfoot
    lfoot ltoes
    rhipjoint rfemur
    rfemur rtibia
    rtibia rfoot
    rfoot rtoes
    lowerback upperback
    upperback thorax
    thorax lowerneck lclavicle rclavicle
    lowerneck upperneck
    upperneck head
    lclavicle lhumerus
    lhumerus lradius
    lradius lwrist
    lwrist lhand lthumb
    lhand lfingers
    rclavicle rhumerus
    rhumerus rradius
    rradius rwrist
    rwrist rhand rthumb
    rhand rfingers
end

#!OML:ASF C:\KaitlinTest1\Natural Motions\Nikki\Session 2\Nikki.ASF
:FULLY-SPECIFIED
:DEGREES
141
root -18.8467 16.6269 5.01966 -153.349 85.7868 -163.31
lowerback -13.3269 -1.69395 -0.0290579
upperback -3.97621 -2.03647 -0.523475
thorax 3.26704 -0.934625 -0.847714
lowerneck -1.93361 1.62689 8.43997
upperneck 27.2147 3.85442 -5.50754
head 9.06572 2.54116 -2.97067
rclavicle 1.73937e-014 7.15625e-015
rhumerus -42.0402 -21.7086 -79.431
rradius 18.4327
rwrist 28.519
rhand -35.9197 3.08403
rfingers 7.12502
rthumb -9.03234 -26.7026
lclavicle 1.73937e-014 7.15625e-015
lhumerus -42.0188 15.9093 80.544
lradius 24.0409
lwrist -40.1349
lhand -32.7989 3.45957
lfingers 7.12502
lthumb -6.02004 33.354
rfemur -7.43185 -16.3831 20.9318
rtibia 10.7844
rfoot -10.5528 11.5899
rtoes -2.3059e-014
lfemur -9.92413 11.9519 -17.9019
ltibia 9.99685
lfoot -2.42531 -16.6421
ltoes -4.45278e-014
142
root -18.8482 16.6273 5.02003 -153.175 85.7755 -163.151
lowerback -13.3188 -1.68812 -0.0232791
upperback -3.99076 -2.02905 -0.521624
thorax 3.24741 -0.93077 -0.847334
lowerneck -1.92906 1.61408 8.4706
upperneck 27.2281 3.84312 -5.53843
head 9.06966 2.53684 -2.98789
rclavicle 2.07481e-014 2.0276e-014
rhumerus -42.0812 -21.755 -79.3913
rradius 18.4467
rwrist 28.6187
rhand -35.8834 3.04413
rfingers 7.12502
rthumb -8.99731 -26.744
lclavicle 2.07481e-014 2.0276e-014
lhumerus -41.9959 15.8148 80.6225
lradius 24.007
lwrist -39.8782
lhand -32.8819 3.45249
lfingers 7.12502
lthumb -6.10018 33.3447
rfemur -7.44789 -16.3432 20.9562
rtibia 10.7689
rfoot -10.539 11.5653
rtoes -5.00937e-014
lfemur -9.956 11.9462 -17.8897
ltibia 10.0075
lfoot -2.42119 -16.62
ltoes -3.49861e-014
143
root -18.8475 16.6283 5.02063 -153.447 85.7832 -163.433
lowerback -13.3333 -1.7009 -0.0601088
upperback -4.00441 -2.04019 -0.520869
thorax 3.24218 -0.935973 -0.827742
lowerneck -1.88804 1.6182 8.45061
upperneck 27.2096 3.84923 -5.5185
head 9.05533 2.5402 -2.97712
rclavicle 1.71452e-015 -1.07344e-014
rhumerus -42.1156 -21.8362 -79.3165
rradius 18.4134
rwrist 28.6791
rhand -35.896 3.05837
rfingers 7.12502
rthumb -9.00944 -26.7292
lclavicle 1.71452e-015 -1.07344e-014
lhumerus -42.0378 15.8762 80.5626
lradius 24.0165
lwrist -40.0132
lhand -32.8459 3.48446
lfingers 7.12502
lthumb -6.06546 33.3776
rfemur -7.43971 -16.3489 20.9344
rtibia 10.7406
rfoot -10.5267 11.5612
rtoes -2.38542e-015
lfemur -9.98319 11.9585 -17.9182
ltibia 10.029
lfoot -2.4226 -16.6398
ltoes 7.95139e-015
144
root -18.8477 16.6277 5.02072 -153.373 85.7763 -163.332
lowerback -13.3238 -1.70074 -0.05099
upperback -3.98322 -2.0421 -0.525999
thorax 3.25864 -0.937324 -0.838655
lowerneck -1.90594 1.61229 8.43894
upperneck 27.1976 3.83192 -5.49492
head 9.05249 2.53188 -2.96813
rclavicle 6.93262e-015 5.56597e-015
rhumerus -42.0886 -21.9198 -79.2811
rradius 18.3736
rwrist 28.7529
rhand -35.899 3.07688
rfingers 7.12502
rthumb -9.01234 -26.7106
lclavicle 6.93262e-015 5.56597e-015
lhumerus -41.9954 15.8535 80.5833
lradius 23.9965
lwrist -39.9206
lhand -32.8775 3.49498
lfingers 7.12502
lthumb -6.09594 33.3873
rfemur -7.40341 -16.3863 20.9419
rtibia 10.7227
rfoot -10.5303 11.5993
rtoes -3.97569e-014
lfemur -9.96153 11.9477 -17.8989
ltibia 10.0386
lfoot -2.44388 -16.6371
ltoes -7.95139e-014
145
root -18.8475 16.6278 5.0199 -153.193 85.7724 -163.133
lowerback -13.3063 -1.70762 -0.044013
upperback -3.976 -2.05358 -0.509041
thorax 3.25696 -0.943262 -0.82633
lowerneck -1.91393 1.61687 8.39766
upperneck 27.1984 3.83955 -5.48603
head 9.05378 2.53191 -2.95718
rclavicle 7.28049e-015 -3.97569e-016
rhumerus -42.0771 -21.8466 -79.3017
rradius 18.3735
rwrist 28.6994
rhand -35.9358 3.06749
rfingers 7.12502
rthumb -9.04788 -26.7185
lclavicle 7.28049e-015 -3.97569e-016
lhumerus -42.0048 15.9093 80.5854
lradius 24.015
lwrist -39.9582
lhand -32.8882 3.47222
lfingers 7.12502
lthumb -6.10632 33.3642
rfemur -7.37965 -16.4346 20.9506
rtibia 10.7124
rfoot -10.5409 11.6417
rtoes -7.23576e-014
lfemur -9.93589 11.9433 -17.8828
ltibia 10.0457
lfoot -2.4362 -16.6272
ltoes -4.29375e-014
146
root -18.8484 16.6271 5.02107 -153.488 85.7794 -163.399
lowerback -13.2547 -1.70777 -0.0807855
upperback -3.97899 -2.04911 -0.520961
thorax 3.2268 -0.94141 -0.815722
lowerneck -1.91794 1.6085 8.42098
upperneck 27.2071 3.82605 -5.48788
head 9.0571 2.52795 -2.96306
rclavicle 2.91965e-014 1.19271e-014
rhumerus -42.1092 -21.9553 -79.2348
rradius 18.3531
rwrist 28.7439
rhand -35.9311 3.14563
rfingers 7.12502
rthumb -9.04329 -26.6405
lclavicle 2.91965e-014 1.19271e-014
lhumerus -42.0005 15.8446 80.6053
lradius 24.0143
lwrist -39.8624
lhand -32.9052 3.49855
lfingers 7.12502
lthumb -6.1227 33.3901
rfemur -7.34808 -16.4143 20.9242
rtibia 10.71
rfoot -10.5415 11.6093
rtoes -2.78299e-014
lfemur -9.91384 11.9556 -17.8965
ltibia 10.0565
lfoot -2.45538 -16.6658
ltoes -3.18055e-014
147
root -18.848 16.6274 5.02084 -153.153 85.7712 -163.114
lowerback -13.3201 -1.70126 -0.0592725
upperback -3.99172 -2.0421 -0.510139
thorax 3.24868 -0.937211 -0.817184
lowerneck -1.92146 1.60477 8.37562
upperneck 27.2188 3.81852 -5.45474
head 9.05986 2.52347 -2.94434
rclavicle 7.47927e-015 -8.34896e-015
rhumerus -42.1488 -22.0622 -79.1117
rradius 18.33
rwrist 28.9701
rhand -35.8901 3.15017
rfingers 7.12502
rthumb -9.0038 -26.6377
lclavicle 7.47927e-015 -8.34896e-015
lhumerus -42.016 15.8762 80.6016
lradius 24.0201
lwrist -39.8934
lhand -32.9131 3.48421
lfingers 7.12502
lthumb -6.1303 33.3755
rfemur -7.40769 -16.4608 20.9628
rtibia 10.7075
rfoot -10.5219 11.6694
rtoes 7.95139e-015
lfemur -9.9697 11.9468 -17.8826
ltibia 10.0644
lfoot -2.4358 -16.6226
ltoes 1.59028e-015
